<?xml version="1.0" standalone="no"?><!DOCTYPE svg PUBLIC "-//W3C//DTD SVG 1.1//EN" "http://www.w3.org/Graphics/SVG/1.1/DTD/svg11.dtd" ><svg xmlns="http://www.w3.org/2000/svg"><metadata></metadata><defs><font id="3.0;newt;Oswald Medium" horiz-adv-x="1470"><font-face font-family="Oswald" font-weight="500" font-stretch="normal" units-per-em="2048" panose-1="2 0 6 3 0 0 0 0 0 0" ascent="2233" descent="-548" x-height="0" bbox="8 -332 1403 1677" underline-thickness="40" underline-position="-97" unicode-range="U+0041-04ae" /><missing-glyph horiz-adv-x="748" d="M68 0 l0 1365 l544 0 l0 -1365 l-544 0 ZM136 68 l408 0 l0 1229 l-408 0 l0 -1229 Z" /><glyph glyph-name="A" unicode="a" d="M423 582 l222 0 l-111 681 l-111 -681 ZM38 0 l337 1658 l315 0 l336 -1658 l-281 0 l-67 385 l-287 0 l-68 -385 l-285 0 Z" /><glyph glyph-name="B" unicode="b" d="M426 982 l94 0 q133 0 183 57 q50 57 50 192 q0 70 -16.5 113.5 q-16.5 43.5 -55.5 65.5 q-39 22 -86.5 29 q-47.5 7 -126.5 7 l-42 0 l0 -464 ZM426 213 l111 0 q135 0 187 63 q52 63 52 208 q0 150 -58.5 217.5 q-58.5 67.5 -196.5 67.5 l-95 0 l0 -556 ZM124 0 l0 1658 l406 0 q115 0 200.5 -20.5 q85.5 -20.5 152 -68 q66.5 -47.5 100.5 -131.5 q34 -84 33 -203 q-1 -307 -244 -343 q147 -28 219.5 -128.5 q72.5 -100.5 73.5 -282.5 q1 -236 -118 -358.5 q-119 -122.5 -347 -122.5 l-476 0 Z" /><glyph glyph-name="C" unicode="c" d="M569 -20 q-107 0 -189 27 q-82 27 -135.5 75 q-53.5 48 -87 119 q-33.5 71 -47 152.5 q-13.5 81.5 -13.5 183.5 l0 578 q0 108 14 191.5 q14 83.5 47 155 q33 71.5 86.5 117.5 q53.5 46 135 72 q81.5 26 189.5 26 q124 0 212 -33 q88 -33 139 -97 q51 -64 74 -149.5 q23 -85.5 23 -199.5 l0 -142 l-291 0 l0 141 q0 124 -13 167 q-26 84 -127 90 q-8 0 -16 0 q-38 0 -66.5 -9 q-28.5 -9 -46.5 -28.5 q-18 -19.5 -29 -41.5 q-11 -22 -16.5 -57.5 q-5.5 -35.5 -7 -65.5 q-1.5 -30 -1.5 -76 l0 -702 q0 -146 36.5 -208 q36.5 -62 130.5 -62 q32 0 56.5 7.5 q24.5 7.5 41 19 q16.5 11.5 28 33 q11.5 21.5 17.5 40 q6 18.5 9 51.5 q3 33 3.5 56 q0.5 23 0.5 63 l0 148 l291 0 l0 -136 q0 -93 -13 -167 q-13 -74 -44.5 -139 q-31.5 -65 -81.5 -108 q-50 -43 -128 -67.5 q-78 -24.5 -181 -24.5 Z" /><glyph glyph-name="D" unicode="d" d="M124 0 l0 1658 l386 0 q150 0 251 -30 q101 -30 162 -95 q61 -65 86.5 -159.5 q25.5 -94.5 25.5 -232.5 l0 -598 q0 -142 -26 -241 q-26 -99 -85.5 -168 q-59.5 -69 -158.5 -101.5 q-99 -32.5 -243 -32.5 l-398 0 ZM426 212 l86 0 q45 0 79 8 q34 8 57 19 q23 11 38.5 36 q15.5 25 23.5 46 q8 21 12 63.5 q4 42.5 5 72.5 q1 30 1 89 l0 606 q0 59 -2 95 q-2 36 -9.5 72.5 q-7.5 36.5 -22 56.5 q-14.5 20 -38.5 36.5 q-24 16.5 -60 23 q-36 6.5 -87 6.5 l-83 0 l0 -1230 Z" /><glyph glyph-name="E" unicode="e" d="M124 0 l0 1658 l694 0 l0 -213 l-392 0 l0 -476 l310 0 l0 -213 l-310 0 l0 -547 l397 0 l0 -209 l-699 0 Z" /><glyph glyph-name="F" unicode="f" d="M124 0 l0 1658 l681 0 l0 -209 l-379 0 l0 -482 l303 0 l0 -213 l-303 0 l0 -754 l-302 0 Z" /><glyph glyph-name="G" unicode="g" d="M539 -22 q-235 0 -338.5 147 q-103.5 147 -103.5 428 l0 540 q0 143 22.5 246.5 q22.5 103.5 75.5 181.5 q53 78 146 117 q93 39 228 39 q246 0 353 -120.5 q107 -120.5 107 -365.5 l0 -81 l-289 0 l0 86 q0 55 -2.5 90 q-2.5 35 -12 70.5 q-9.5 35.5 -27.5 54.5 q-18 19 -49 31 q-31 12 -76 12 q-34 0 -60.5 -8.5 q-26.5 -8.5 -44.5 -21 q-18 -12.5 -30.5 -35.5 q-12.5 -23 -19 -44.5 q-6.5 -21.5 -10 -55.5 q-3.5 -34 -4.5 -60 q-1 -26 -1 -67 l0 -669 q0 -150 37 -219.5 q37 -69.5 141 -69.5 q54 0 90.5 20.5 q36.5 20.5 57 62 q20.5 41.5 29 95 q8.5 53.5 8.5 129.5 l0 136 l-179 0 l0 195 l451 0 l0 -842 l-196 0 l-22 168 q-75 -190 -281 -190 Z" /><glyph glyph-name="H" unicode="h" d="M127 0 l0 1658 l302 0 l0 -693 l337 0 l0 693 l302 0 l0 -1658 l-302 0 l0 750 l-337 0 l0 -750 l-302 0 Z" /><glyph glyph-name="I" unicode="i" d="M133 0 l0 1658 l298 0 l0 -1658 l-298 0 Z" /><glyph glyph-name="J" unicode="j" d="M19 -35 l0 212 q133 -1 177 40 q44 41 44 169 l0 1272 l302 0 l-1 -1279 q-1 -109 -18.5 -183.5 q-17.5 -74.5 -60 -128 q-42.5 -53.5 -116 -78 q-73.5 -24.5 -182.5 -24.5 l-145 0 Z" /><glyph glyph-name="K" unicode="k" d="M124 0 l0 1658 l302 0 l0 -720 l326 720 l288 0 l-317 -742 l350 -916 l-301 0 l-286 780 l-60 -108 l0 -672 l-302 0 Z" /><glyph glyph-name="L" unicode="l" d="M124 0 l0 1658 l302 0 l0 -1449 l397 0 l0 -209 l-699 0 Z" /><glyph glyph-name="M" unicode="m" d="M121 0 l27 1658 l310 0 l240 -1165 l247 1165 l303 0 l28 -1658 l-228 0 l-20 1142 l-239 -1142 l-177 0 l-242 1146 l-18 -1146 l-231 0 Z" /><glyph glyph-name="N" unicode="n" d="M124 0 l0 1658 l208 0 l406 -939 l0 939 l250 0 l0 -1658 l-198 0 l-410 987 l0 -987 l-256 0 Z" /><glyph glyph-name="O" unicode="o" d="M575 -20 q-256 0 -367 139 q-111 139 -111 407 l0 612 q0 132 25 229 q25 97 80.5 168 q55.5 71 148.5 106.5 q93 35.5 224 35.5 q255 0 366.5 -137 q111.5 -137 111.5 -402 l0 -612 q0 -130 -25.5 -228.5 q-25.5 -98.5 -81 -171 q-55.5 -72.5 -148.5 -109.5 q-93 -37 -223 -37 ZM499.5 217 q31.5 -13 75.5 -13 q44 0 75 13 q31 13 49.5 34 q18.5 21 29 55 q10.5 34 14 68 q3.5 34 3.5 81 l0 753 q0 60 -6 100 q-6 40 -23.5 75.5 q-17.5 35.5 -52.5 53 q-35 17.5 -89 17.5 q-54 0 -89.5 -17.5 q-35.5 -17.5 -52.5 -53 q-17 -35.5 -23 -75.5 q-6 -40 -6 -100 l0 -753 q0 -47 3.5 -81 q3.5 -34 14 -68 q10.5 -34 28.5 -55 q18 -21 49.5 -34 Z" /><glyph glyph-name="P" unicode="p" d="M426 953 l97 0 q128 0 173 50.5 q45 50.5 45 185.5 q0 77 -6 119 q-6 42 -28 76.5 q-22 34.5 -65.5 47.5 q-43.5 13 -117.5 13 l-98 0 l0 -492 ZM124 0 l0 1658 l477 0 q424 0 424 -471 q0 -231 -116 -338.5 q-116 -107.5 -327 -107.5 l-156 0 l0 -741 l-302 0 Z" /><glyph glyph-name="Q" unicode="q" d="M499.5 217 q31.5 -13 75.5 -13 q44 0 75 13 q31 13 49.5 34 q18.5 21 29 55 q10.5 34 14 68 q3.5 34 3.5 81 l0 753 q0 60 -6 100 q-6 40 -23.5 75.5 q-17.5 35.5 -52.5 53 q-35 17.5 -89 17.5 q-54 0 -89.5 -17.5 q-35.5 -17.5 -52.5 -53 q-17 -35.5 -23 -75.5 q-6 -40 -6 -100 l0 -753 q0 -47 3.5 -81 q3.5 -34 14 -68 q10.5 -34 28.5 -55 q18 -21 49.5 -34 ZM928 -332 q-75 35 -165.5 126 q-90.5 91 -153.5 187 q-11 -1 -34 -1 q-256 0 -367 139 q-111 139 -111 407 l0 612 q0 132 25 229 q25 97 80.5 168 q55.5 71 148.5 106.5 q93 35.5 224 35.5 q255 0 366.5 -137 q111.5 -137 111.5 -402 l0 -612 q0 -386 -230 -497 q99 -118 161 -156 l-56 -205 Z" /><glyph glyph-name="R" unicode="r" d="M426 950 l73 0 q134 0 190.5 57 q56.5 57 56.5 195 q0 133 -49 190.5 q-49 57.5 -180 57.5 l-91 0 l0 -500 ZM124 0 l0 1658 l380 0 q131 0 225 -21.5 q94 -21.5 163.5 -72 q69.5 -50.5 104 -137 q34.5 -86.5 34.5 -211.5 q0 -156 -46.5 -255 q-46.5 -99 -153.5 -144 l230 -817 l-303 0 l-198 757 l-134 0 l0 -757 l-302 0 Z" /><glyph glyph-name="S" unicode="s" d="M542 -20 q-438 0 -460 506 l263 55 q10 -329 188 -329 q69 0 102.5 42 q33.5 42 33.5 113 q0 69 -25 126.5 q-25 57.5 -58 94 q-33 36.5 -94 90.5 l-218 189 q-96 84 -143 174.5 q-47 90.5 -47 226.5 q0 193 113.5 300 q113.5 107 311.5 109 q91 1 161 -22.5 q70 -23.5 115.5 -63 q45.5 -39.5 76 -98.5 q30.5 -59 45.5 -122.5 q15 -63.5 21 -141.5 l-258 -51 q-2 50 -6.5 87 q-4.5 37 -15.5 75 q-11 38 -28.5 61.5 q-17.5 23.5 -47 37.5 q-29.5 14 -68.5 11 q-67 -4 -102.5 -44.5 q-35.5 -40.5 -35.5 -108.5 q0 -80 31.5 -131.5 q31.5 -51.5 98.5 -110.5 l216 -188 q54 -49 94 -95 q40 -46 76.5 -105 q36.5 -59 55.5 -130 q19 -71 19 -150 q0 -181 -114.5 -294 q-114.5 -113 -300.5 -113 Z" /><glyph glyph-name="T" unicode="t" d="M286 0 l0 1435 l-278 0 l0 223 l849 0 l0 -223 l-269 0 l0 -1435 l-302 0 Z" /><glyph glyph-name="U" unicode="u" d="M578 -20 q-111 0 -192.5 26 q-81.5 26 -134 73 q-52.5 47 -84 120.5 q-31.5 73.5 -44 159 q-12.5 85.5 -12.5 198.5 l0 1101 l293 0 l0 -1132 q0 -58 3 -99 q3 -41 13 -86 q10 -45 28.5 -72 q18.5 -27 51 -45 q32.5 -18 78.5 -18 q46 0 78.5 18 q32.5 18 50 45 q17.5 27 28 72 q10.5 45 13 85.5 q2.5 40.5 2.5 99.5 l0 1132 l293 0 l0 -1101 q0 -113 -12.5 -198.5 q-12.5 -85.5 -44 -159 q-31.5 -73.5 -83.5 -120.5 q-52 -47 -133.5 -73 q-81.5 -26 -191.5 -26 Z" /><glyph glyph-name="V" unicode="v" d="M383 0 l-336 1658 l268 0 l218 -1154 l206 1154 l274 0 l-338 -1658 l-292 0 Z" /><glyph glyph-name="W" unicode="w" d="M304 0 l-237 1658 l254 0 l136 -1069 l177 1069 l203 0 l181 -1070 l136 1070 l249 0 l-237 -1658 l-241 0 l-187 1107 l-186 -1107 l-248 0 Z" /><glyph glyph-name="X" unicode="x" d="M21 0 l333 880 l-324 778 l283 0 l215 -514 l185 514 l265 0 l-320 -831 l344 -827 l-282 0 l-232 556 l-204 -556 l-263 0 Z" /><glyph glyph-name="Y" unicode="y&#x4ae;" d="M357 0 l0 631 l-338 1027 l282 0 l205 -660 l196 660 l279 0 l-336 -1027 l0 -631 l-288 0 Z" /><glyph glyph-name="Z" unicode="z" d="M72 0 l0 198 l440 1251 l-418 0 l0 209 l727 0 l0 -149 l-461 -1300 l462 0 l0 -209 l-750 0 Z" /></font>
</defs>
</svg>
