<?xml version="1.0" standalone="no"?><!DOCTYPE svg PUBLIC "-//W3C//DTD SVG 1.1//EN" "http://www.w3.org/Graphics/SVG/1.1/DTD/svg11.dtd" ><svg xmlns="http://www.w3.org/2000/svg"><metadata></metadata><defs><font id="2.000;ADBO;SourceHanSansCN-Bold;ADOBE" horiz-adv-x="2048"><font-face font-family="Source Han Sans CN" font-weight="700" font-stretch="normal" units-per-em="2048" panose-1="2 11 8 0 0 0 0 0 0 0" ascent="2376" descent="-590" x-height="0" bbox="-111 -498 2009 1802" underline-thickness="102" underline-position="-307" unicode-range="U+002d-968f" /><missing-glyph horiz-adv-x="2048" d="M205 -246 l0 2048 l1638 0 l0 -2048 l-1638 0 ZM1024 862 l651 838 l-1302 0 l651 -838 ZM1090 778 l651 -837 l0 1675 l-651 -838 ZM373 -143 l1302 0 l-651 837 l-651 -837 ZM307 1616 l0 -1675 l651 837 l-651 838 Z" /><glyph glyph-name="" unicode="-­&#x2011;" d="M100 479 l0 215 l559 0 l0 -215 l-559 0 Z" /><glyph glyph-name="" unicode="/" d="M29 -373 l510 2024 l198 0 l-508 -2024 l-200 0 Z" /><glyph glyph-name="" unicode="0" d="M604 -29 q-232 0 -373 200.5 q-141 200.5 -141 592.5 q0 393 141 586.5 q141 193.5 373 193.5 q232 0 372 -194 q140 -194 140 -586 q0 -392 -140 -592.5 q-140 -200.5 -372 -200.5 ZM604 207 q66 0 117 50.5 q51 50.5 80.5 172 q29.5 121.5 29.5 334.5 q0 212 -29.5 331 q-29.5 119 -80.5 167.5 q-51 48.5 -117 48.5 q-65 0 -117 -48.5 q-52 -48.5 -82 -167.5 q-30 -119 -30 -331 q0 -213 30 -334.5 q30 -121.5 82 -172 q52 -50.5 117 -50.5 Z" /><glyph glyph-name="" unicode="1" d="M168 0 l0 244 l326 0 l0 958 l-275 0 l0 187 q114 21 197 51.5 q83 30.5 155 77.5 l224 0 l0 -1274 l284 0 l0 -244 l-911 0 Z" /><glyph glyph-name="" unicode="2" d="M88 0 l0 174 q309 277 482 494.5 q173 217.5 173 392.5 q0 115 -59 180.5 q-59 65.5 -168 65.5 q-83 0 -151.5 -46.5 q-68.5 -46.5 -126.5 -109.5 l-164 164 q104 112 215 170.5 q111 58.5 266 58.5 q143 0 250.5 -58 q107.5 -58 167 -162.5 q59.5 -104.5 59.5 -246.5 q0 -137 -68.5 -279 q-68.5 -142 -182.5 -283.5 q-114 -141.5 -253 -276.5 q57 6 125.5 11 q68.5 5 122.5 5 l328 0 l0 -254 l-1016 0 Z" /><glyph glyph-name="" unicode="3" d="M561 -29 q-180 0 -304 60.5 q-124 60.5 -204 150.5 l142 191 q67 -66 151 -111 q84 -45 186 -45 q116 0 187.5 55 q71.5 55 71.5 158 q0 74 -36 128 q-36 54 -126.5 84 q-90.5 30 -255.5 30 l0 215 q139 0 219.5 29.5 q80.5 29.5 114.5 82 q34 52.5 34 119.5 q0 89 -53 139 q-53 50 -149 50 q-82 0 -151 -35.5 q-69 -35.5 -136 -97.5 l-154 184 q99 86 210 136 q111 50 245 50 q220 0 355.5 -105 q135.5 -105 135.5 -298 q0 -123 -66 -211 q-66 -88 -185 -135 l0 -11 q127 -35 214 -129 q87 -94 87 -243 q0 -140 -73 -238.5 q-73 -98.5 -194 -150.5 q-121 -52 -266 -52 Z" /><glyph glyph-name="" unicode="4" d="M336 623 l354 0 l0 309 q0 66 3.5 157 q3.5 91 6.5 158 l-8 0 q-55 -123 -121 -248 l-235 -376 ZM690 0 l0 393 l-647 0 l0 205 l565 920 l363 0 l0 -895 l178 0 l0 -230 l-178 0 l0 -393 l-281 0 Z" /><glyph glyph-name="" unicode="5" d="M565 -29 q-179 0 -303 61.5 q-124 61.5 -209 145.5 l140 193 q64 -63 145.5 -108.5 q81.5 -45.5 187.5 -45.5 q119 0 194 72.5 q75 72.5 75 206.5 q0 132 -70.5 203 q-70.5 71 -185.5 71 q-68 0 -115 -18.5 q-47 -18.5 -113 -61.5 l-137 90 l41 738 l811 0 l0 -254 l-551 0 l-29 -322 q47 22 89 32.5 q42 10.5 94 10.5 q127 0 233 -51.5 q106 -51.5 170 -158 q64 -106.5 64 -271.5 q0 -169 -74.5 -288 q-74.5 -119 -195 -182 q-120.5 -63 -261.5 -63 Z" /><glyph glyph-name="" unicode="6" d="M631 741 q-62 0 -129 -36.5 q-67 -36.5 -119 -122.5 q21 -208 92 -295.5 q71 -87.5 166 -87.5 q85 0 146 70 q61 70 61 210 q0 134 -59.5 198 q-59.5 64 -157.5 64 ZM647 -29 q-144 0 -268.5 80.5 q-124.5 80.5 -200.5 249.5 q-76 169 -76 436 q0 212 48 365 q48 153 130.5 251 q82.5 98 188 144.5 q105.5 46.5 219.5 46.5 q140 0 241.5 -50.5 q101.5 -50.5 170.5 -121.5 l-160 -180 q-40 46 -103.5 78.5 q-63.5 32.5 -129.5 32.5 q-87 0 -160 -49 q-73 -49 -118.5 -161 q-45.5 -112 -51.5 -302 q61 76 149 119.5 q88 43.5 162 43.5 q191 0 312.5 -116 q121.5 -116 121.5 -359 q0 -155 -65 -269 q-65 -114 -173 -176.5 q-108 -62.5 -237 -62.5 Z" /><glyph glyph-name="" unicode="7" d="M381 0 q10 197 34 363.5 q24 166.5 69.5 315 q45.5 148.5 118.5 291.5 q73 143 181 294 l-682 0 l0 254 l1008 0 l0 -185 q-132 -161 -212 -307 q-80 -146 -123 -298 q-43 -152 -61.5 -328.5 q-18.5 -176.5 -27.5 -399.5 l-305 0 Z" /><glyph glyph-name="" unicode="8" d="M602 -29 q-144 0 -258.5 52 q-114.5 52 -181 143.5 q-66.5 91.5 -66.5 210.5 q0 146 77 243 q77 97 183 152 l0 10 q-87 63 -143.5 151 q-56.5 88 -56.5 210 q0 122 59.5 211.5 q59.5 89.5 162.5 138.5 q103 49 234 49 q134 0 233 -50.5 q99 -50.5 153.5 -141 q54.5 -90.5 54.5 -211.5 q0 -112 -60 -202.5 q-60 -90.5 -135 -143.5 l0 -11 q105 -56 179.5 -153 q74.5 -97 74.5 -252 q0 -115 -63.5 -206.5 q-63.5 -91.5 -178 -145.5 q-114.5 -54 -268.5 -54 ZM698 866 q109 115 109 254 q0 92 -53 151.5 q-53 59.5 -148 59.5 q-77 0 -130.5 -49 q-53.5 -49 -53.5 -139 q0 -108 78.5 -168.5 q78.5 -60.5 197.5 -108.5 ZM610 184 q97 0 159 52.5 q62 52.5 62 150.5 q0 79 -43 131.5 q-43 52.5 -118.5 92 q-75.5 39.5 -173.5 79.5 q-62 -49 -101 -122.5 q-39 -73.5 -39 -157.5 q0 -103 74 -164.5 q74 -61.5 180 -61.5 Z" /><glyph glyph-name="" unicode="9" d="M358 1038 q0 -133 58.5 -197.5 q58.5 -64.5 156.5 -64.5 q63 0 130.5 38 q67.5 38 119.5 126 q-20 206 -91.5 291.5 q-71.5 85.5 -168.5 85.5 q-84 0 -144.5 -69.5 q-60.5 -69.5 -60.5 -209.5 ZM522 -29 q-141 0 -244.5 51.5 q-103.5 51.5 -171.5 120.5 l160 183 q42 -46 106 -77.5 q64 -31.5 132 -31.5 q85 0 155.5 48 q70.5 48 115.5 159.5 q45 111.5 52 300.5 q-60 -77 -147 -120.5 q-87 -43.5 -164 -43.5 q-126 0 -224 52.5 q-98 52.5 -154 158.5 q-56 106 -56 266 q0 156 65 269.5 q65 113.5 173.5 175 q108.5 61.5 238.5 61.5 q143 0 267.5 -78 q124.5 -78 201 -244 q76.5 -166 76.5 -429 q0 -215 -48 -370.5 q-48 -155.5 -130 -255.5 q-82 -100 -186.5 -148 q-104.5 -48 -217.5 -48 Z" /><glyph glyph-name="" unicode="a" d="M516 791 l-45 -166 l360 0 l-45 166 q-35 118 -66.5 245 q-31.5 127 -64.5 250 l-10 0 q-29 -124 -62 -250.5 q-33 -126.5 -67 -244.5 ZM-8 0 l485 1518 l357 0 l487 -1518 l-317 0 l-107 389 l-491 0 l-107 -389 l-307 0 Z" /><glyph glyph-name="" unicode="b" d="M186 0 l0 1518 l502 0 q156 0 280 -35 q124 -35 196.5 -117 q72.5 -82 72.5 -223 q0 -105 -55 -199.5 q-55 -94.5 -152 -128.5 l0 -10 q123 -29 204 -117 q81 -88 81 -242 q0 -152 -77.5 -251 q-77.5 -99 -210.5 -147 q-133 -48 -300 -48 l-541 0 ZM489 899 l177 0 q144 0 210 54 q66 54 66 145 q0 100 -68 143 q-68 43 -204 43 l-181 0 l0 -385 ZM489 233 l211 0 q156 0 238 57 q82 57 82 175 q0 110 -81.5 160.5 q-81.5 50.5 -238.5 50.5 l-211 0 l0 -443 Z" /><glyph glyph-name="" unicode="c" d="M805 -29 q-192 0 -349.5 90 q-157.5 90 -251 264 q-93.5 174 -93.5 427 q0 187 55.5 334 q55.5 147 153 249.5 q97.5 102.5 224.5 155.5 q127 53 271 53 q144 0 257.5 -59 q113.5 -59 187.5 -135 l-158 -193 q-59 55 -127 91 q-68 36 -154 36 q-114 0 -205 -62.5 q-91 -62.5 -143.5 -179.5 q-52.5 -117 -52.5 -280 q0 -247 107.5 -388 q107.5 -141 287.5 -141 q98 0 175 42 q77 42 138 108 l160 -188 q-94 -109 -215 -166.5 q-121 -57.5 -268 -57.5 Z" /><glyph glyph-name="" unicode="d" d="M186 0 l0 1518 l416 0 q232 0 400 -82 q168 -82 259 -249 q91 -167 91 -423 q0 -255 -90.5 -425 q-90.5 -170 -255 -254.5 q-164.5 -84.5 -388.5 -84.5 l-432 0 ZM489 244 l95 0 q212 0 335 121.5 q123 121.5 123 398.5 q0 185 -55.5 297 q-55.5 112 -158.5 162.5 q-103 50.5 -244 50.5 l-95 0 l0 -1030 Z" /><glyph glyph-name="" unicode="e" d="M186 0 l0 1518 l930 0 l0 -254 l-627 0 l0 -351 l533 0 l0 -254 l-533 0 l0 -405 l650 0 l0 -254 l-953 0 Z" /><glyph glyph-name="" unicode="f" d="M186 0 l0 1518 l934 0 l0 -254 l-631 0 l0 -396 l539 0 l0 -254 l-539 0 l0 -614 l-303 0 Z" /><glyph glyph-name="" unicode="g" d="M838 -29 q-206 0 -370.5 90 q-164.5 90 -260.5 264 q-96 174 -96 427 q0 249 97.5 426.5 q97.5 177.5 262.5 271.5 q165 94 367 94 q164 0 279.5 -59.5 q115.5 -59.5 189.5 -134.5 l-160 -193 q-57 54 -126.5 90.5 q-69.5 36.5 -172.5 36.5 q-126 0 -222.5 -62.5 q-96.5 -62.5 -151 -179.5 q-54.5 -117 -54.5 -280 q0 -247 113 -388 q113 -141 337 -141 q54 0 105.5 15 q51.5 15 83.5 43 l0 299 l-268 0 l0 248 l538 0 l0 -684 q-77 -76 -205 -129.5 q-128 -53.5 -286 -53.5 Z" /><glyph glyph-name="" unicode="h" d="M186 0 l0 1518 l303 0 l0 -598 l574 0 l0 598 l301 0 l0 -1518 l-301 0 l0 655 l-574 0 l0 -655 l-303 0 Z" /><glyph glyph-name="" unicode="i" d="M186 0 l0 1518 l303 0 l0 -1518 l-303 0 Z" /><glyph glyph-name="" unicode="j" d="M516 -29 q-166 0 -280 67 q-114 67 -189 200 l207 153 q44 -83 102.5 -120.5 q58.5 -37.5 122.5 -37.5 q100 0 151.5 62 q51.5 62 51.5 219 l0 1004 l303 0 l0 -1029 q0 -142 -49.5 -259.5 q-49.5 -117.5 -153 -188 q-103.5 -70.5 -266.5 -70.5 Z" /><glyph glyph-name="" unicode="k" d="M186 0 l0 1518 l303 0 l0 -660 l7 0 l501 660 l334 0 l-463 -598 l545 -920 l-332 0 l-393 682 l-199 -256 l0 -426 l-303 0 Z" /><glyph glyph-name="" unicode="l" d="M186 0 l0 1518 l303 0 l0 -1264 l617 0 l0 -254 l-920 0 Z" /><glyph glyph-name="" unicode="m" d="M186 0 l0 1518 l336 0 l258 -711 q25 -71 47 -145 q22 -74 45 -146 l11 0 q24 72 45.5 146 q21.5 74 46.5 145 l252 711 l336 0 l0 -1518 l-277 0 l0 633 q0 72 6.5 160.5 q6.5 88.5 15.5 177 q9 88.5 17 159.5 l-10 0 l-123 -356 l-234 -637 l-174 0 l-235 637 l-121 356 l-8 0 q7 -71 16 -159.5 q9 -88.5 16 -177 q7 -88.5 7 -160.5 l0 -633 l-273 0 Z" /><glyph glyph-name="" unicode="n" d="M186 0 l0 1518 l310 0 l440 -809 l151 -328 l11 0 q-11 118 -25 259.5 q-14 141.5 -14 270.5 l0 607 l287 0 l0 -1518 l-308 0 l-438 811 l-154 326 l-10 0 q11 -123 24 -260.5 q13 -137.5 13 -268.5 l0 -608 l-287 0 Z" /><glyph glyph-name="" unicode="o" d="M788 -29 q-200 0 -353 96 q-153 96 -238.5 273.5 q-85.5 177.5 -85.5 423.5 q0 247 85.5 421.5 q85.5 174.5 238.5 266.5 q153 92 353 92 q201 0 354 -92.5 q153 -92.5 238.5 -267 q85.5 -174.5 85.5 -420.5 q0 -246 -85.5 -423.5 q-85.5 -177.5 -238.5 -273.5 q-153 -96 -354 -96 ZM788 233 q169 0 269 144 q100 144 100 387 q0 244 -100 382 q-100 138 -269 138 q-168 0 -268 -138 q-100 -138 -100 -382 q0 -243 100 -387 q100 -144 268 -144 Z" /><glyph glyph-name="" unicode="p" d="M186 0 l0 1518 l498 0 q168 0 302.5 -45 q134.5 -45 213 -149 q78.5 -104 78.5 -284 q0 -173 -78.5 -284 q-78.5 -111 -211.5 -164 q-133 -53 -296 -53 l-203 0 l0 -539 l-303 0 ZM489 778 l183 0 q309 0 309 262 q0 132 -81.5 184 q-81.5 52 -237.5 52 l-173 0 l0 -498 Z" /><glyph glyph-name="" unicode="q" d="M788 219 q169 0 269 145 q100 145 100 400 q0 244 -100 382 q-100 138 -269 138 q-168 0 -268 -138 q-100 -138 -100 -382 q0 -255 100 -400 q100 -145 268 -145 ZM1278 -412 q-232 0 -391 112 q-159 112 -238 284 q-162 30 -283 132.5 q-121 102.5 -188 267 q-67 164.5 -67 380.5 q0 247 85.5 421.5 q85.5 174.5 238.5 266.5 q153 92 353 92 q201 0 354 -92.5 q153 -92.5 238.5 -267 q85.5 -174.5 85.5 -420.5 q0 -207 -61.5 -366 q-61.5 -159 -173.5 -262 q-112 -103 -262 -142 q52 -86 146.5 -124 q94.5 -38 197.5 -38 q49 0 91 7 q42 7 75 18 l55 -224 q-40 -18 -106.5 -31.5 q-66.5 -13.5 -149.5 -13.5 Z" /><glyph glyph-name="" unicode="r" d="M186 0 l0 1518 l529 0 q158 0 287.5 -43 q129.5 -43 205.5 -143.5 q76 -100.5 76 -274.5 q0 -171 -79 -278.5 q-79 -107.5 -210 -157.5 l355 -621 l-338 0 l-312 573 l-211 0 l0 -573 l-303 0 ZM489 813 l197 0 q146 0 224.5 61 q78.5 61 78.5 183 q0 123 -78.5 171 q-78.5 48 -224.5 48 l-197 0 l0 -463 Z" /><glyph glyph-name="" unicode="s" d="M639 -29 q-152 0 -297 58 q-145 58 -256 164 l174 208 q82 -75 183.5 -121.5 q101.5 -46.5 201.5 -46.5 q118 0 180 47.5 q62 47.5 62 127.5 q0 56 -29 90.5 q-29 34.5 -80 60 q-51 25.5 -119 53.5 l-202 86 q-77 32 -147.5 85 q-70.5 53 -115 132.5 q-44.5 79.5 -44.5 190.5 q0 124 67 223 q67 99 185 157 q118 58 272 58 q132 0 257.5 -50.5 q125.5 -50.5 217.5 -143.5 l-154 -191 q-72 60 -150 92.5 q-78 32.5 -171 32.5 q-100 0 -158.5 -42 q-58.5 -42 -58.5 -118 q0 -54 32 -88.5 q32 -34.5 85.5 -59.5 q53.5 -25 117.5 -50 l199 -84 q138 -57 221.5 -152.5 q83.5 -95.5 83.5 -259.5 q0 -124 -66.5 -228.5 q-66.5 -104.5 -191 -167.5 q-124.5 -63 -299.5 -63 Z" /><glyph glyph-name="" unicode="t" d="M487 0 l0 1264 l-426 0 l0 254 l1160 0 l0 -254 l-430 0 l0 -1264 l-304 0 Z" /><glyph glyph-name="" unicode="u" d="M768 -29 q-184 0 -316.5 73 q-132.5 73 -203 229.5 q-70.5 156.5 -70.5 408.5 l0 836 l303 0 l0 -863 q0 -157 35 -249.5 q35 -92.5 99.5 -132.5 q64.5 -40 152.5 -40 q90 0 156.5 40 q66.5 40 102.5 132.5 q36 92.5 36 249.5 l0 863 l291 0 l0 -836 q0 -378 -154 -544.5 q-154 -166.5 -432 -166.5 Z" /><glyph glyph-name="" unicode="v" d="M453 0 l-463 1518 l317 0 l201 -740 q35 -126 63.5 -244 q28.5 -118 63.5 -245 l10 0 q37 127 65.5 245 q28.5 118 63.5 244 l197 740 l307 0 l-463 -1518 l-362 0 Z" /><glyph glyph-name="" unicode="w" d="M330 0 l-291 1518 l307 0 l121 -742 q17 -120 35 -240 q18 -120 35 -243 l8 0 q23 123 47 244 q24 121 49 239 l176 742 l260 0 l174 -742 q25 -117 48.5 -238.5 q23.5 -121.5 48.5 -244.5 l10 0 q17 123 34 244 q17 121 33 239 l121 742 l287 0 l-281 -1518 l-376 0 l-170 750 q-19 89 -35.5 176.5 q-16.5 87.5 -30.5 175.5 l-8 0 q-16 -88 -31.5 -175.5 q-15.5 -87.5 -34.5 -176.5 l-166 -750 l-370 0 Z" /><glyph glyph-name="" unicode="x" d="M29 0 l426 782 l-400 736 l336 0 l152 -314 q27 -54 53 -111.5 q26 -57.5 59 -127.5 l11 0 q27 70 51 127.5 q24 57.5 49 111.5 l143 314 l320 0 l-400 -750 l426 -768 l-335 0 l-170 336 q-30 58 -57.5 119.5 q-27.5 61.5 -61.5 130.5 l-8 0 q-28 -69 -55.5 -130.5 q-27.5 -61.5 -55.5 -119.5 l-162 -336 l-321 0 Z" /><glyph glyph-name="" unicode="y" d="M442 0 l0 555 l-454 963 l321 0 l152 -371 q32 -85 64 -166.5 q32 -81.5 67 -169.5 l8 0 q35 88 69 169.5 q34 81.5 66 166.5 l152 371 l315 0 l-457 -963 l0 -555 l-303 0 Z" /><glyph glyph-name="" unicode="z" d="M88 0 l0 182 l707 1082 l-639 0 l0 254 l1011 0 l0 -183 l-706 -1081 l713 0 l0 -254 l-1086 0 Z" /><glyph glyph-name="" unicode="a" d="M444 -29 q-102 0 -178.5 44.5 q-76.5 44.5 -119 121.5 q-42.5 77 -42.5 174 q0 185 157.5 286 q157.5 101 504.5 138 q-5 85 -48 142 q-43 57 -149 57 q-80 0 -157.5 -31.5 q-77.5 -31.5 -157.5 -77.5 l-109 199 q102 63 223 107.5 q121 44.5 257 44.5 q218 0 329 -128.5 q111 -128.5 111 -377.5 l0 -670 l-246 0 l-20 123 l-8 0 q-76 -65 -162 -108.5 q-86 -43.5 -185 -43.5 ZM543 207 q64 0 116 29.5 q52 29.5 107 82.5 l0 232 q-210 -26 -292.5 -82 q-82.5 -56 -82.5 -133 q0 -68 43 -98.5 q43 -30.5 109 -30.5 Z" /><glyph glyph-name="" unicode="b" d="M737 -29 q-162 0 -305 150 l-8 0 l-27 -121 l-235 0 l0 1634 l301 0 l0 -411 l-8 -185 q67 62 150 100 q83 38 167 38 q141 0 242.5 -72.5 q101.5 -72.5 156 -203.5 q54.5 -131 54.5 -306 q0 -198 -69.5 -337 q-69.5 -139 -181 -212.5 q-111.5 -73.5 -237.5 -73.5 ZM670 219 q104 0 174.5 90.5 q70.5 90.5 70.5 278.5 q0 164 -54.5 252 q-54.5 88 -172.5 88 q-109 0 -225 -119 l0 -504 q54 -47 107.5 -66.5 q53.5 -19.5 99.5 -19.5 Z" /><glyph glyph-name="" unicode="c" d="M649 -29 q-159 0 -285.5 71.5 q-126.5 71.5 -200 206 q-73.5 134.5 -73.5 324.5 q0 191 81.5 325.5 q81.5 134.5 215 206 q133.5 71.5 289.5 71.5 q106 0 188.5 -37 q82.5 -37 145.5 -90 l-144 -195 q-43 37 -84.5 56.5 q-41.5 19.5 -89.5 19.5 q-132 0 -213.5 -97.5 q-81.5 -97.5 -81.5 -259.5 q0 -162 81 -259 q81 -97 204 -97 q61 0 118.5 26 q57.5 26 104.5 66 l121 -198 q-83 -73 -182.5 -106.5 q-99.5 -33.5 -194.5 -33.5 Z" /><glyph glyph-name="" unicode="d" d="M565 -29 q-142 0 -247.5 72 q-105.5 72 -163.5 207 q-58 135 -58 323 q0 187 69 322 q69 135 179 208 q110 73 234 73 q96 0 162.5 -34.5 q66.5 -34.5 127.5 -90.5 l-10 180 l0 403 l299 0 l0 -1634 l-244 0 l-22 119 l-8 0 q-63 -62 -146 -105 q-83 -43 -172 -43 ZM643 219 q60 0 112 27 q52 27 103 92 l0 504 q-52 47 -106.5 66.5 q-54.5 19.5 -108.5 19.5 q-97 0 -167 -90 q-70 -90 -70 -263 q0 -178 61.5 -267 q61.5 -89 175.5 -89 Z" /><glyph glyph-name="" unicode="e" d="M662 -29 q-161 0 -290.5 72 q-129.5 72 -205.5 206.5 q-76 134.5 -76 323.5 q0 139 44.5 250.5 q44.5 111.5 120.5 190 q76 78.5 171.5 120.5 q95.5 42 198.5 42 q157 0 264 -71 q107 -71 161 -195 q54 -124 54 -281 q0 -93 -14 -140 l-707 0 q18 -141 104 -213.5 q86 -72.5 213 -72.5 q71 0 134 20.5 q63 20.5 124 59.5 l103 -185 q-85 -58 -189.5 -92.5 q-104.5 -34.5 -209.5 -34.5 ZM379 690 l467 0 q0 115 -53.5 183.5 q-53.5 68.5 -163.5 68.5 q-91 0 -162 -63.5 q-71 -63.5 -88 -188.5 Z" /><glyph glyph-name="" unicode="f" d="M213 0 l0 909 l-154 0 l0 224 l154 12 l0 94 q0 120 39.5 216 q39.5 96 127.5 152 q88 56 232 56 q66 0 122.5 -12.5 q56.5 -12.5 94.5 -26.5 l-55 -223 q-29 12 -61 18 q-32 6 -60 6 q-67 0 -103 -42.5 q-36 -42.5 -36 -137.5 l0 -98 l215 0 l0 -238 l-215 0 l0 -909 l-301 0 Z" /><glyph glyph-name="" unicode="g" d="M565 -498 q-135 0 -243.5 31.5 q-108.5 31.5 -172 97 q-63.5 65.5 -63.5 166.5 q0 72 43 132.5 q43 60.5 121 105.5 l0 10 q-45 29 -75 75.5 q-30 46.5 -30 117.5 q0 64 38.5 121 q38.5 57 90.5 94 l0 8 q-59 43 -106 121 q-47 78 -47 180 q0 134 65 226 q65 92 170.5 140 q105.5 48 227.5 48 q47 0 91.5 -8.5 q44.5 -8.5 80.5 -20.5 l413 0 l0 -221 l-194 0 q21 -29 36 -75 q15 -46 15 -99 q0 -129 -59.5 -215.5 q-59.5 -86.5 -159.5 -130.5 q-100 -44 -223 -44 q-68 0 -148 27 q-23 -20 -36 -41.5 q-13 -21.5 -13 -56.5 q0 -46 39.5 -70 q39.5 -24 140.5 -24 l195 0 q207 0 317.5 -68.5 q110.5 -68.5 110.5 -218.5 q0 -116 -76.5 -208 q-76.5 -92 -216.5 -146 q-140 -54 -332 -54 ZM584 549 q75 0 127.5 55 q52.5 55 52.5 158 q0 100 -52 154.5 q-52 54.5 -128 54.5 q-77 0 -129 -54.5 q-52 -54.5 -52 -154.5 q0 -103 52.5 -158 q52.5 -55 128.5 -55 ZM610 -307 q129 0 210 49 q81 49 81 117 q0 61 -49 81.5 q-49 20.5 -141 20.5 l-140 0 q-52 0 -90.5 4.5 q-38.5 4.5 -68.5 11.5 q-74 -59 -74 -133 q0 -72 74 -111.5 q74 -39.5 198 -39.5 Z" /><glyph glyph-name="" unicode="h" d="M162 0 l0 1634 l301 0 l0 -411 l-14 -215 q69 64 156 116 q87 52 204 52 q186 0 270 -122.5 q84 -122.5 84 -338.5 l0 -715 l-301 0 l0 678 q0 134 -38.5 187 q-38.5 53 -123.5 53 q-70 0 -122 -33.5 q-52 -33.5 -115 -96.5 l0 -788 l-301 0 Z" /><glyph glyph-name="" unicode="i" d="M162 0 l0 1147 l301 0 l0 -1147 l-301 0 ZM313 1331 q-78 0 -127 45.5 q-49 45.5 -49 120.5 q0 74 49 119 q49 45 127 45 q77 0 125.5 -45 q48.5 -45 48.5 -119 q0 -75 -48.5 -120.5 q-48.5 -45.5 -125.5 -45.5 Z" /><glyph glyph-name="" unicode="j" d="M82 -469 q-66 0 -112.5 9 q-46.5 9 -80.5 22 l54 223 q23 -8 46.5 -12 q23.5 -4 49.5 -4 q72 0 98.5 48.5 q26.5 48.5 26.5 145.5 l0 1184 l301 0 l0 -1176 q0 -123 -35.5 -222.5 q-35.5 -99.5 -119.5 -158.5 q-84 -59 -228 -59 ZM313 1331 q-76 0 -125 45.5 q-49 45.5 -49 120.5 q0 74 49 119 q49 45 125 45 q79 0 127.5 -45 q48.5 -45 48.5 -119 q0 -75 -48.5 -120.5 q-48.5 -45.5 -127.5 -45.5 Z" /><glyph glyph-name="" unicode="k" d="M162 0 l0 1634 l293 0 l0 -983 l10 0 l395 496 l328 0 l-397 -469 l434 -678 l-326 0 l-278 475 l-166 -188 l0 -287 l-293 0 Z" /><glyph glyph-name="" unicode="l" d="M444 -29 q-156 0 -219 95.5 q-63 95.5 -63 255.5 l0 1312 l301 0 l0 -1325 q0 -52 19 -72 q19 -20 40 -20 q9 0 17.5 0.5 q8.5 0.5 23.5 3.5 l37 -223 q-26 -11 -64 -19 q-38 -8 -92 -8 Z" /><glyph glyph-name="" unicode="m" d="M162 0 l0 1147 l246 0 l22 -154 l6 0 q72 76 156 129.5 q84 53.5 196 53.5 q123 0 198.5 -53 q75.5 -53 117.5 -148 q78 83 165 142 q87 59 199 59 q183 0 270 -122.5 q87 -122.5 87 -338.5 l0 -715 l-301 0 l0 678 q0 134 -39.5 187 q-39.5 53 -120.5 53 q-98 0 -221 -130 l0 -788 l-299 0 l0 678 q0 134 -40.5 187 q-40.5 53 -121.5 53 q-99 0 -219 -130 l0 -788 l-301 0 Z" /><glyph glyph-name="" unicode="n" d="M162 0 l0 1147 l246 0 l22 -152 l6 0 q75 74 165.5 127.5 q90.5 53.5 207.5 53.5 q186 0 270 -122.5 q84 -122.5 84 -338.5 l0 -715 l-301 0 l0 678 q0 134 -38.5 187 q-38.5 53 -123.5 53 q-70 0 -122 -33.5 q-52 -33.5 -115 -96.5 l0 -788 l-301 0 Z" /><glyph glyph-name="" unicode="o" d="M641 -29 q-143 0 -269 71.5 q-126 71.5 -204 206 q-78 134.5 -78 324.5 q0 191 78 325.5 q78 134.5 204 206 q126 71.5 269 71.5 q143 0 269 -71.5 q126 -71.5 204 -206 q78 -134.5 78 -325.5 q0 -190 -78 -324.5 q-78 -134.5 -204 -206 q-126 -71.5 -269 -71.5 ZM641 217 q117 0 180.5 97 q63.5 97 63.5 259 q0 162 -63.5 259.5 q-63.5 97.5 -180.5 97.5 q-117 0 -180.5 -97.5 q-63.5 -97.5 -63.5 -259.5 q0 -162 63.5 -259 q63.5 -97 180.5 -97 Z" /><glyph glyph-name="" unicode="p" d="M162 -440 l0 1587 l246 0 l22 -119 l6 0 q72 62 159 105 q87 43 179 43 q141 0 242 -73 q101 -73 155 -204 q54 -131 54 -307 q0 -197 -69.5 -335.5 q-69.5 -138.5 -181 -212 q-111.5 -73.5 -237.5 -73.5 q-75 0 -146.5 32.5 q-71.5 32.5 -137.5 92.5 l10 -188 l0 -348 l-301 0 ZM670 219 q104 0 174.5 90.5 q70.5 90.5 70.5 278.5 q0 164 -54.5 252 q-54.5 88 -172.5 88 q-109 0 -225 -119 l0 -504 q54 -47 107.5 -66.5 q53.5 -19.5 99.5 -19.5 Z" /><glyph glyph-name="" unicode="q" d="M858 -440 l0 364 l10 185 q-58 -60 -138 -99 q-80 -39 -165 -39 q-142 0 -247.5 72 q-105.5 72 -163.5 207 q-58 135 -58 323 q0 187 69 322 q69 135 179 208 q110 73 234 73 q95 0 168.5 -35 q73.5 -35 142.5 -107 l8 0 l25 113 l235 0 l0 -1587 l-299 0 ZM643 219 q60 0 112 27 q52 27 103 92 l0 504 q-52 47 -106.5 66.5 q-54.5 19.5 -108.5 19.5 q-97 0 -167 -90 q-70 -90 -70 -263 q0 -178 61.5 -267 q61.5 -89 175.5 -89 Z" /><glyph glyph-name="" unicode="r" d="M162 0 l0 1147 l246 0 l22 -203 l6 0 q63 112 150 172 q87 60 176 60 q47 0 78 -7 q31 -7 57 -18 l-51 -260 q-31 9 -58.5 13.5 q-27.5 4.5 -62.5 4.5 q-68 0 -141.5 -50.5 q-73.5 -50.5 -120.5 -174.5 l0 -684 l-301 0 Z" /><glyph glyph-name="" unicode="s" d="M489 -29 q-115 0 -232.5 45.5 q-117.5 45.5 -203.5 116.5 l137 189 q77 -60 152.5 -92.5 q75.5 -32.5 155.5 -32.5 q86 0 126 33.5 q40 33.5 40 86.5 q0 43 -35 73 q-35 30 -90 53 q-55 23 -115 46 q-73 28 -143.5 69.5 q-70.5 41.5 -117 106 q-46.5 64.5 -46.5 160.5 q0 103 52.5 182 q52.5 79 148.5 124 q96 45 227 45 q124 0 221 -44 q97 -44 168 -98 l-135 -182 q-62 45 -122.5 71.5 q-60.5 26.5 -123.5 26.5 q-78 0 -116 -30.5 q-38 -30.5 -38 -79.5 q0 -42 32 -69 q32 -27 83.5 -48 q51.5 -21 112.5 -43 q75 -29 149 -68.5 q74 -39.5 122 -105.5 q48 -66 48 -172 q0 -101 -52 -183 q-52 -82 -153.5 -131 q-101.5 -49 -251.5 -49 Z" /><glyph glyph-name="" unicode="t" d="M582 -29 q-137 0 -219.5 54.5 q-82.5 54.5 -120 151 q-37.5 96.5 -37.5 224.5 l0 508 l-162 0 l0 224 l178 14 l35 309 l250 0 l0 -309 l282 0 l0 -238 l-282 0 l0 -508 q0 -192 156 -192 q27 0 58 7.5 q31 7.5 54 16.5 l49 -219 q-46 -15 -106 -29 q-60 -14 -135 -14 Z" /><glyph glyph-name="" unicode="u" d="M504 -29 q-186 0 -270 122 q-84 122 -84 337 l0 717 l301 0 l0 -678 q0 -132 38 -186 q38 -54 121 -54 q71 0 123 33.5 q52 33.5 111 110.5 l0 774 l301 0 l0 -1147 l-246 0 l-22 164 l-9 0 q-73 -88 -160 -140.5 q-87 -52.5 -204 -52.5 Z" /><glyph glyph-name="" unicode="v" d="M420 0 l-391 1147 l303 0 l168 -572 q23 -84 46 -172 q23 -88 46 -176 l10 0 q23 88 46 176 q23 88 46 172 l168 572 l289 0 l-383 -1147 l-348 0 Z" /><glyph glyph-name="" unicode="w" d="M352 0 l-297 1147 l301 0 l125 -565 q17 -85 29.5 -167.5 q12.5 -82.5 28.5 -168.5 l8 0 q17 86 33.5 169.5 q16.5 83.5 37.5 166.5 l140 565 l266 0 l143 -565 q20 -85 37 -167.5 q17 -82.5 35 -168.5 l10 0 q16 86 29 168.5 q13 82.5 29 167.5 l125 565 l278 0 l-283 -1147 l-354 0 l-121 500 q-18 81 -33 162 q-15 81 -32 172 l-10 0 q-17 -91 -31.5 -172.5 q-14.5 -81.5 -32.5 -161.5 l-117 -500 l-344 0 Z" /><glyph glyph-name="" unicode="x" d="M33 0 l358 598 l-336 549 l324 0 l115 -203 q24 -49 50 -98 q26 -49 52 -96 l8 0 q20 47 42 96 q22 49 42 98 l96 203 l312 0 l-336 -584 l358 -563 l-323 0 l-127 211 q-28 49 -55.5 100 q-27.5 51 -55.5 101 l-10 0 q-25 -50 -48.5 -100 q-23.5 -50 -47.5 -101 l-107 -211 l-311 0 Z" /><glyph glyph-name="" unicode="y" d="M262 -461 q-51 0 -87.5 6 q-36.5 6 -70.5 17 l56 231 q15 -4 37.5 -9 q22.5 -5 42.5 -5 q87 0 138.5 49.5 q51.5 49.5 76.5 124.5 l20 67 l-446 1127 l303 0 l182 -533 q26 -76 49 -158 q23 -82 47 -165 l11 0 q20 80 40.5 162 q20.5 82 40.5 161 l158 533 l289 0 l-408 -1182 q-50 -135 -112 -230 q-62 -95 -150.5 -145.5 q-88.5 -50.5 -216.5 -50.5 Z" /><glyph glyph-name="" unicode="z" d="M84 0 l0 162 l514 747 l-457 0 l0 238 l832 0 l0 -162 l-514 -747 l532 0 l0 -238 l-907 0 Z" /><glyph glyph-name="" unicode="&#x2f00;&#x4e00;" d="M84 930 l1884 0 l0 -264 l-1884 0 l0 264 Z" /><glyph glyph-name="" unicode="&#x52a0;" d="M588 1368 l442 0 q0 0 0 -21 q0 -21 -0.5 -47.5 q-0.5 -26.5 -1.5 -42.5 q-7 -327 -14 -555.5 q-7 -228.5 -17 -376 q-10 -147.5 -25.5 -230 q-15.5 -82.5 -39.5 -118.5 q-35 -52 -71 -72.5 q-36 -20.5 -87 -31.5 q-44 -9 -109.5 -10 q-65.5 -1 -138.5 2 q-3 51 -20 121 q-17 70 -49 123 q61 -5 113 -7 q52 -2 81 -2 q44 0 70 37 q19 28 32 131.5 q13 103.5 21 311.5 q8 208 14 550 l-206 0 q-11 -273 -44 -514 q-33 -241 -107 -442 q-74 -201 -206 -352 q-27 44 -79.5 97 q-52.5 53 -98.5 81 q115 130 177 302 q62 172 88.5 380.5 q26.5 208.5 33.5 447.5 l-237 0 l0 238 l239 0 q2 81 2 165.5 q0 84.5 0 172.5 l240 0 q0 -86 -0.5 -170.5 q-0.5 -84.5 -1.5 -167.5 ZM1378 242 l264 0 l0 1026 l-264 0 l0 -1026 ZM1143 1501 l743 0 l0 -1622 l-244 0 l0 127 l-264 0 l0 -141 l-235 0 l0 1636 Z" /><glyph glyph-name="" unicode="&#x5bfc;" d="M1452 1473 l-942 0 l0 -136 l942 0 l0 136 ZM1491 797 l-715 0 q-198 0 -312 24 q-114 24 -162 87 q-48 63 -48 179 l0 594 l1438 0 l0 -553 l-1182 0 l0 -36 q0 -42 19.5 -63.5 q19.5 -21.5 76 -28.5 q56.5 -7 166.5 -7 l696 0 q79 0 121.5 9 q42.5 9 61.5 36 q19 27 28 80 q45 -24 110.5 -42 q65.5 -18 119.5 -25 q-18 -104 -60 -159 q-42 -55 -127 -75 q-85 -20 -231 -20 ZM1935 637 l0 -227 l-419 0 l0 -338 q0 -94 -27.5 -143 q-27.5 -49 -99.5 -72 q-74 -23 -178.5 -28 q-104.5 -5 -245.5 -5 q-10 49 -34 111 q-24 62 -48 108 q62 -3 130 -4.5 q68 -1.5 122 -1.5 q54 0 73 0 q31 1 43.5 10.5 q12.5 9.5 12.5 32.5 l0 330 l-623 0 q83 -62 159.5 -131.5 q76.5 -69.5 119.5 -128.5 l-177 -166 q-32 50 -90 110 q-58 60 -126.5 119 q-68.5 59 -135.5 106 l98 91 l-368 0 l0 227 l1143 0 l0 115 l252 0 l0 -115 l419 0 Z" /><glyph glyph-name="" unicode="&#x5f55;" d="M1143 764 l0 -43 q32 -60 71 -116.5 q39 -56.5 86 -108.5 q82 60 168 131.5 q86 71.5 148 136.5 l-473 0 ZM1630 764 l201 -146 q-88 -72 -186.5 -141.5 q-98.5 -69.5 -186.5 -126.5 q103 -80 228 -140 q125 -60 268 -97 q-42 -39 -89 -103.5 q-47 -64.5 -75 -111.5 q-201 66 -362.5 179 q-161.5 113 -284.5 267 l0 -293 q0 -87 -24 -132.5 q-24 -45.5 -87 -70.5 q-61 -23 -147 -28.5 q-86 -5.5 -201 -5.5 q-11 49 -34 107.5 q-23 58.5 -48 103.5 q48 -3 99 -4.5 q51 -1.5 91.5 -1.5 q40.5 0 55.5 1 q45 0 45 37 l0 152 q-171 -74 -339 -146 q-168 -72 -308 -131 l-133 220 q96 32 223.5 78.5 q127.5 46.5 270.5 101 q143 54.5 286 110.5 l0 322 l-762 0 l0 211 l1288 0 l6 110 l-1103 0 l0 218 l1116 0 l4 110 l-1188 0 l0 221 l1221 0 l45 11 l196 -11 q-3 -159 -13 -330 q-10 -171 -26 -329 l250 0 l0 -211 l-297 0 ZM784 508 l-174 -166 q-37 40 -98.5 87.5 q-61.5 47.5 -132.5 93.5 q-71 46 -135 83 l162 148 q62 -33 134 -75 q72 -42 137 -86.5 q65 -44.5 107 -84.5 Z" /><glyph glyph-name="" unicode="&#x6761;" d="M555 369 l193 -84 q-55 -72 -129.5 -146 q-74.5 -74 -156 -139 q-81.5 -65 -155.5 -109 q-26 37 -74.5 90 q-48.5 53 -85.5 82 q70 35 146.5 85.5 q76.5 50.5 145.5 107.5 q69 57 116 113 ZM1778 403 l-633 0 l0 -340 q0 -82 -20 -128 q-20 -46 -76 -72 q-54 -26 -129.5 -31.5 q-75.5 -5.5 -174.5 -5.5 q-7 49 -27.5 108.5 q-20.5 59.5 -41.5 104.5 q54 -2 111 -2 q57 0 75 0 q35 3 35 31 l0 335 l-600 0 l0 209 l600 0 l0 164 l248 0 l0 -164 l633 0 l0 -209 ZM1282 246 l172 121 q67 -52 139 -114.5 q72 -62.5 134.5 -126.5 q62.5 -64 101.5 -118 l-184 -137 q-36 52 -96 118.5 q-60 66.5 -130 133.5 q-70 67 -137 123 ZM1294 1362 l-538 0 q57 -58 126.5 -108 q69.5 -50 149.5 -95 q77 45 143.5 95 q66.5 50 118.5 108 ZM1511 1579 l166 -98 q-70 -132 -171.5 -239 q-101.5 -107 -225.5 -193 q155 -59 333 -97.5 q178 -38.5 374 -58.5 q-39 -40 -81.5 -105.5 q-42.5 -65.5 -62.5 -111.5 q-227 31 -430 88 q-203 57 -377 141 q-192 -93 -413 -155 q-221 -62 -451 -99 q-15 46 -46.5 110 q-31.5 64 -64.5 107 q196 23 384 68 q188 45 354 113 q-57 38 -109.5 83.5 q-52.5 45.5 -99.5 94.5 q-126 -98 -285 -183 q-27 42 -78.5 97 q-51.5 55 -91.5 84 q224 101 373 238 q149 137 227 274 l269 -49 q-19 -30 -40 -60 q-21 -30 -42 -59 l546 0 l43 10 Z" /><glyph glyph-name="" unicode="&#x8bb0;" d="M725 1374 l-176 -172 q-33 47 -90.5 109 q-57.5 62 -123 125.5 q-65.5 63.5 -122.5 115.5 l162 152 q58 -49 125 -108 q67 -59 127 -117 q60 -58 98 -105 ZM623 301 l159 111 q10 -50 32 -114.5 q22 -64.5 42 -100.5 q-132 -95 -214.5 -156 q-82.5 -61 -130 -98 q-47.5 -37 -71 -59.5 q-23.5 -22.5 -37.5 -39.5 q-11 26 -33.5 60 q-22.5 34 -48 66 q-25.5 32 -45.5 50 q33 28 68 86 q35 58 35 140 l0 631 l-297 0 l0 233 l541 0 l0 -809 ZM1274 88 l342 0 q53 0 80.5 23 q27.5 23 39.5 91 q12 68 19 204 q42 -31 110.5 -58 q68.5 -27 119.5 -41 q-15 -176 -49.5 -274.5 q-34.5 -98.5 -106 -138 q-71.5 -39.5 -197.5 -39.5 l-385 0 q-135 0 -213 28.5 q-78 28.5 -110.5 101.5 q-32.5 73 -32.5 205 l0 754 l725 0 l0 416 l-768 0 l0 242 l1014 0 l0 -988 l-246 0 l0 101 l-473 0 l0 -527 q0 -64 23 -82 q23 -18 108 -18 Z" /><glyph glyph-name="" unicode="&#x968f;" d="M1040 1241 l-174 -100 q-21 60 -63.5 139 q-42.5 79 -91.5 152 q-31 -114 -63.5 -232.5 q-32.5 -118.5 -61.5 -212.5 q83 -126 107 -237.5 q24 -111.5 24 -204.5 q0 -100 -20 -166.5 q-20 -66.5 -66 -102.5 q-22 -18 -49 -28 q-27 -10 -58 -17 q-24 -3 -53 -3.5 q-29 -0.5 -59 -0.5 q-2 43 -14 102 q-12 59 -36 103 q24 -3 40.5 -3.5 q16.5 -0.5 31.5 -0.5 q34 3 49 18 q17 14 24 48 q7 34 7 81 q0 77 -23.5 176.5 q-23.5 99.5 -101.5 213.5 q28 99 56.5 228 q28.5 129 50.5 237 l-138 0 l0 -1610 l-211 0 l0 1827 l416 0 l33 10 l152 -88 l-19 -66 l117 62 q57 -76 112.5 -167 q55.5 -91 81.5 -157 ZM1679 1022 l-266 0 l0 -111 l266 0 l0 111 ZM1413 635 l266 0 l0 110 l-266 0 l0 -110 ZM1044 915 l0 -692 q17 -14 37 -28 q20 -14 41 -29 q77 -52 172 -72 q95 -20 219 -20 q64 0 149 3.5 q85 3.5 172 10.5 q87 7 157 16 q-11 -28 -22 -70 q-11 -42 -18.5 -84 q-7.5 -42 -8.5 -71 q-54 -4 -130 -7.5 q-76 -3.5 -156 -6 q-80 -2.5 -145 -2.5 q-138 0 -235.5 26.5 q-97.5 26.5 -181.5 81.5 q-54 37 -98.5 73 q-44.5 36 -71.5 36 q-25 0 -56.5 -37.5 q-31.5 -37.5 -64.5 -94.5 q-33 -57 -62 -114 l-145 211 q60 71 121.5 125 q61.5 54 118.5 82 l0 514 l-142 0 l0 203 l297 0 q-6 6 -12 12 q-6 6 -12 10 q78 65 141.5 148.5 q63.5 83.5 114.5 183.5 l-187 0 l0 205 l271 0 q15 50 28.5 101.5 q13.5 51.5 24.5 105.5 l213 -39 q-9 -43 -19.5 -85 q-10.5 -42 -21.5 -83 l434 0 l0 -205 l-508 0 q-14 -32 -28 -62 q-14 -30 -29 -61 l493 0 l0 -844 q0 -67 -13 -105.5 q-13 -38.5 -56 -60.5 q-40 -23 -95 -27.5 q-55 -4.5 -128 -4.5 q-5 41 -21 90 q-16 49 -33 88 q34 -2 65.5 -2 q31.5 0 43.5 0 q22 0 22 24 l0 109 l-266 0 l0 -307 l-205 0 l0 753 q-43 -49 -86 -86 q-12 16 -33 39 q-21 23 -45 49 Z" /><glyph glyph-name="" unicode="&#x6dfb;" d="M633 1526 l-146 -197 q-33 34 -88 74 q-55 40 -118.5 77.5 q-63.5 37.5 -122.5 63.5 l139 180 q56 -25 120 -59 q64 -34 121.5 -70 q57.5 -36 94.5 -69 ZM537 985 l-144 -197 q-34 33 -89.5 71 q-55.5 38 -119 73.5 q-63.5 35.5 -121.5 60.5 l134 178 q59 -21 123.5 -52 q64.5 -31 122 -66 q57.5 -35 94.5 -68 ZM389 625 l197 -133 q-57 -163 -125 -331 q-68 -168 -137 -317 l-220 133 q41 79 91 185.5 q50 106.5 100.5 225.5 q50.5 119 93.5 237 ZM1292 485 l176 66 q48 -100 88.5 -217 q40.5 -117 59.5 -205 l-191 -74 q-9 58 -30 131.5 q-21 73.5 -48 150.5 q-27 77 -55 144 l0 -415 q0 -80 -17 -128 q-17 -48 -69 -75 q-52 -26 -122 -32.5 q-70 -6.5 -166 -6.5 q-7 49 -24.5 110 q-17.5 61 -37.5 109 q55 -3 108.5 -2.5 q53.5 0.5 71.5 0.5 q33 0 33 29 l0 727 l223 0 l0 -312 ZM1968 995 l-342 0 q74 -86 172.5 -155.5 q98.5 -69.5 210.5 -112.5 q-38 -31 -83.5 -87.5 q-45.5 -56.5 -72.5 -100.5 q-39 17 -81 43 q72 -111 134 -233 q62 -122 93 -216 l-201 -100 q-19 69 -59 158.5 q-40 89.5 -90.5 182 q-50.5 92.5 -102.5 171.5 l162 78 q-103 70 -190 166 q-87 96 -152 206 l-184 0 q-68 -123 -158.5 -229.5 q-90.5 -106.5 -208.5 -187.5 l182 -68 q-40 -126 -101 -253 q-61 -127 -157 -218 l-176 129 q86 74 148.5 184.5 q62.5 110.5 97.5 220.5 q-32 -21 -66 -41 q-34 -20 -71 -38 q-17 25 -44 60 q-27 35 -56 68.5 q-29 33.5 -52 55.5 q125 57 219.5 138 q94.5 81 163.5 179 l-309 0 l0 226 l432 0 q18 44 32.5 91 q14.5 47 26.5 95 l-393 0 l0 225 l1204 0 l0 -225 l-555 0 q-12 -48 -27 -94 q-15 -46 -32 -92 l686 0 l0 -226 Z" /></font>
</defs>
</svg>
